<svg width="363" height="50" viewBox="0 0 363 50" fill="none" xmlns="http://www.w3.org/2000/svg">
<path d="M0 43.2897V6.66589H10.4988C14.0206 6.66589 16.7804 7.43536 18.778 8.9743C20.7757 10.5132 21.7745 12.8143 21.7745 15.8773C21.7745 19.6803 20.206 22.366 17.0689 23.9346C19.6289 24.3341 21.5896 25.3181 22.9509 26.8867C24.3271 28.4404 25.0152 30.4825 25.0152 33.0129C25.0152 35.1437 24.5343 36.9786 23.5724 38.5175C22.6106 40.0565 21.2418 41.2403 19.4661 42.0689C17.6904 42.8828 15.5892 43.2897 13.1624 43.2897H0ZM7.16939 21.493H8.83411C10.7726 21.493 12.2597 21.0935 13.2956 20.2944C14.3314 19.4805 14.8493 18.3189 14.8493 16.8096C14.8493 15.2854 14.3462 14.146 13.34 13.3914C12.3337 12.6219 10.8318 12.2371 8.83411 12.2371H7.16939V21.493ZM7.16939 37.6963H10.7208C12.97 37.6963 14.6569 37.2819 15.7815 36.4533C16.921 35.6246 17.4907 34.4038 17.4907 32.7909C17.4907 31.1484 16.9062 29.8906 15.7372 29.0175C14.5829 28.1297 12.9108 27.6858 10.7208 27.6858H7.16939V37.6963Z" fill="#081828"/>
<path d="M44.6193 44C40.0321 44 36.5621 42.8532 34.2093 40.5596C31.8565 38.2512 30.6801 34.8329 30.6801 30.3049V6.66589H37.8717V28.2407C37.8717 31.3333 38.397 33.5604 39.4476 34.9217C40.513 36.2683 42.2369 36.9416 44.6193 36.9416C47.0017 36.9416 48.7183 36.2683 49.7689 34.9217C50.8343 33.5604 51.367 31.3333 51.367 28.2407V6.66589H58.5586V30.3049C58.5586 34.8329 57.3822 38.2512 55.0294 40.5596C52.6914 42.8532 49.2214 44 44.6193 44Z" fill="#081828"/>
<path d="M76.6114 44C74.9097 44 73.3412 43.8076 71.9058 43.4229C70.4705 43.053 69.1831 42.5868 68.0437 42.0245C66.9191 41.4474 65.9498 40.8555 65.136 40.2488C64.3221 39.6421 63.6784 39.1094 63.2049 38.6507L66.8895 32.7021C67.3778 33.1312 67.9623 33.6122 68.643 34.1449C69.3237 34.6776 70.0857 35.1881 70.9292 35.6764C71.7727 36.1499 72.6827 36.5495 73.6593 36.875C74.6508 37.1857 75.7014 37.3411 76.8112 37.3411C77.847 37.3411 78.7571 37.1784 79.5414 36.8528C80.3404 36.5273 80.9693 36.0463 81.428 35.41C81.8868 34.759 82.1161 33.9525 82.1161 32.9907C82.1161 32.1176 81.9311 31.3777 81.5612 30.771C81.1913 30.1495 80.6438 29.5946 79.9187 29.1063C79.2084 28.6032 78.328 28.1149 77.2773 27.6414C76.2415 27.153 75.0577 26.6203 73.7259 26.0432C72.7345 25.5993 71.7875 25.0962 70.8848 24.5339C69.997 23.9568 69.2053 23.2909 68.5098 22.5362C67.8143 21.7815 67.2594 20.9307 66.8451 19.9836C66.4456 19.0218 66.2458 17.949 66.2458 16.7652C66.2458 15.3594 66.5269 14.0129 67.0892 12.7255C67.6515 11.4381 68.4506 10.2913 69.4864 9.28505C70.5371 8.27882 71.7801 7.47975 73.2154 6.88785C74.6656 6.29595 76.2785 6 78.0542 6C79.386 6 80.7177 6.17757 82.0495 6.53271C83.3813 6.88785 84.6243 7.35397 85.7785 7.93108C86.9327 8.50818 87.9093 9.13707 88.7084 9.81776L85.7119 15.4556C85.0756 14.9081 84.3505 14.4198 83.5367 13.9907C82.7376 13.5467 81.8794 13.1916 80.9619 12.9252C80.0593 12.6589 79.1418 12.5257 78.2096 12.5257C77.1589 12.5257 76.2637 12.7107 75.5238 13.0806C74.7987 13.4505 74.2364 13.9463 73.8369 14.5678C73.4522 15.1745 73.2598 15.8551 73.2598 16.6098C73.2598 17.2313 73.3856 17.764 73.6371 18.2079C73.9035 18.6371 74.2734 19.0144 74.747 19.34C75.2205 19.6507 75.7902 19.954 76.4561 20.25C77.122 20.5312 77.8544 20.8345 78.6535 21.16C80.37 21.8851 81.9237 22.6028 83.3147 23.3131C84.7057 24.0234 85.8969 24.815 86.8883 25.6881C87.8797 26.5463 88.6344 27.5526 89.1523 28.7068C89.685 29.861 89.9514 31.2372 89.9514 32.8353C89.9514 35.1733 89.3891 37.1784 88.2645 38.8505C87.1547 40.5226 85.6009 41.8026 83.6033 42.6904C81.6056 43.5635 79.275 44 76.6114 44Z" fill="#081828"/>
<path d="M97.3268 43.2897V6.66589H104.518V43.2897H97.3268Z" fill="#081828"/>
<path d="M114.538 43.2897V6.66589H121.729L137.511 31.3037V6.66589H144.702V43.2897H137.511L121.729 18.6519V43.2897H114.538Z" fill="#081828"/>
<path d="M154.682 43.2897V6.66589H175.058V12.9696H161.873V21.7815H174.525V28.0853H161.873V36.986H175.058V43.2897H154.682Z" fill="#081828"/>
<path d="M193.402 44C191.7 44 190.132 43.8076 188.696 43.4229C187.261 43.053 185.974 42.5868 184.834 42.0245C183.71 41.4474 182.74 40.8555 181.926 40.2488C181.113 39.6421 180.469 39.1094 179.995 38.6507L183.68 32.7021C184.168 33.1312 184.753 33.6122 185.433 34.1449C186.114 34.6776 186.876 35.1881 187.72 35.6764C188.563 36.1499 189.473 36.5495 190.45 36.875C191.441 37.1857 192.492 37.3411 193.602 37.3411C194.638 37.3411 195.548 37.1784 196.332 36.8528C197.131 36.5273 197.76 36.0463 198.219 35.41C198.677 34.759 198.907 33.9525 198.907 32.9907C198.907 32.1176 198.722 31.3777 198.352 30.771C197.982 30.1495 197.434 29.5946 196.709 29.1063C195.999 28.6032 195.118 28.1149 194.068 27.6414C193.032 27.153 191.848 26.6203 190.516 26.0432C189.525 25.5993 188.578 25.0962 187.675 24.5339C186.787 23.9568 185.996 23.2909 185.3 22.5362C184.605 21.7815 184.05 20.9307 183.636 19.9836C183.236 19.0218 183.036 17.949 183.036 16.7652C183.036 15.3594 183.317 14.0129 183.88 12.7255C184.442 11.4381 185.241 10.2913 186.277 9.28505C187.328 8.27882 188.571 7.47975 190.006 6.88785C191.456 6.29595 193.069 6 194.845 6C196.176 6 197.508 6.17757 198.84 6.53271C200.172 6.88785 201.415 7.35397 202.569 7.93108C203.723 8.50818 204.7 9.13707 205.499 9.81776L202.502 15.4556C201.866 14.9081 201.141 14.4198 200.327 13.9907C199.528 13.5467 198.67 13.1916 197.752 12.9252C196.85 12.6589 195.932 12.5257 195 12.5257C193.949 12.5257 193.054 12.7107 192.314 13.0806C191.589 13.4505 191.027 13.9463 190.627 14.5678C190.243 15.1745 190.05 15.8551 190.05 16.6098C190.05 17.2313 190.176 17.764 190.428 18.2079C190.694 18.6371 191.064 19.0144 191.537 19.34C192.011 19.6507 192.581 19.954 193.247 20.25C193.912 20.5312 194.645 20.8345 195.444 21.16C197.16 21.8851 198.714 22.6028 200.105 23.3131C201.496 24.0234 202.687 24.815 203.679 25.6881C204.67 26.5463 205.425 27.5526 205.943 28.7068C206.476 29.861 206.742 31.2372 206.742 32.8353C206.742 35.1733 206.18 37.1784 205.055 38.8505C203.945 40.5226 202.391 41.8026 200.394 42.6904C198.396 43.5635 196.065 44 193.402 44Z" fill="#081828"/>
<path d="M222.795 44C221.093 44 219.524 43.8076 218.089 43.4229C216.654 43.053 215.366 42.5868 214.227 42.0245C213.102 41.4474 212.133 40.8555 211.319 40.2488C210.505 39.6421 209.862 39.1094 209.388 38.6507L213.073 32.7021C213.561 33.1312 214.145 33.6122 214.826 34.1449C215.507 34.6776 216.269 35.1881 217.112 35.6764C217.956 36.1499 218.866 36.5495 219.843 36.875C220.834 37.1857 221.885 37.3411 222.994 37.3411C224.03 37.3411 224.94 37.1784 225.725 36.8528C226.524 36.5273 227.153 36.0463 227.611 35.41C228.07 34.759 228.299 33.9525 228.299 32.9907C228.299 32.1176 228.114 31.3777 227.744 30.771C227.374 30.1495 226.827 29.5946 226.102 29.1063C225.392 28.6032 224.511 28.1149 223.461 27.6414C222.425 27.153 221.241 26.6203 219.909 26.0432C218.918 25.5993 217.971 25.0962 217.068 24.5339C216.18 23.9568 215.388 23.2909 214.693 22.5362C213.998 21.7815 213.443 20.9307 213.028 19.9836C212.629 19.0218 212.429 17.949 212.429 16.7652C212.429 15.3594 212.71 14.0129 213.272 12.7255C213.835 11.4381 214.634 10.2913 215.67 9.28505C216.72 8.27882 217.963 7.47975 219.399 6.88785C220.849 6.29595 222.462 6 224.237 6C225.569 6 226.901 6.17757 228.233 6.53271C229.564 6.88785 230.807 7.35397 231.962 7.93108C233.116 8.50818 234.093 9.13707 234.892 9.81776L231.895 15.4556C231.259 14.9081 230.534 14.4198 229.72 13.9907C228.921 13.5467 228.063 13.1916 227.145 12.9252C226.242 12.6589 225.325 12.5257 224.393 12.5257C223.342 12.5257 222.447 12.7107 221.707 13.0806C220.982 13.4505 220.42 13.9463 220.02 14.5678C219.635 15.1745 219.443 15.8551 219.443 16.6098C219.443 17.2313 219.569 17.764 219.82 18.2079C220.087 18.6371 220.457 19.0144 220.93 19.34C221.404 19.6507 221.973 19.954 222.639 20.25C223.305 20.5312 224.038 20.8345 224.837 21.16C226.553 21.8851 228.107 22.6028 229.498 23.3131C230.889 24.0234 232.08 24.815 233.072 25.6881C234.063 26.5463 234.818 27.5526 235.336 28.7068C235.868 29.861 236.135 31.2372 236.135 32.8353C236.135 35.1733 235.572 37.1784 234.448 38.8505C233.338 40.5226 231.784 41.8026 229.786 42.6904C227.789 43.5635 225.458 44 222.795 44Z" fill="#081828"/>
<path fill-rule="evenodd" clip-rule="evenodd" d="M362.852 0H258.135V50H362.852V0ZM329.399 38.3577C331.1 39.1017 332.924 39.4737 334.872 39.4737C336.82 39.4737 338.644 39.1017 340.344 38.3577C342.044 37.6138 343.536 36.5823 344.82 35.2635C346.103 33.9333 347.106 32.3947 347.826 30.6474C348.558 28.889 348.924 27.0065 348.924 25C348.924 22.9935 348.558 21.1167 347.826 19.3695C347.106 17.611 346.103 16.0723 344.82 14.7534C343.536 13.4233 342.044 12.3863 340.344 11.6423C338.644 10.8983 336.82 10.5263 334.872 10.5263C332.924 10.5263 331.1 10.8983 329.399 11.6423C327.699 12.3863 326.207 13.4233 324.923 14.7534C323.64 16.0723 322.632 17.611 321.9 19.3695C321.18 21.1167 320.819 22.9935 320.819 25C320.819 27.0065 321.18 28.889 321.9 30.6474C322.632 32.3947 323.64 33.9333 324.923 35.2635C326.207 36.5823 327.699 37.6138 329.399 38.3577ZM337.709 32.5919C336.853 32.9865 335.908 33.1837 334.872 33.1837C333.836 33.1837 332.884 32.9865 332.017 32.5919C331.161 32.1974 330.418 31.6394 329.788 30.918C329.168 30.1853 328.684 29.3229 328.335 28.331C327.997 27.3277 327.829 26.2174 327.829 25C327.829 23.7826 327.997 22.6779 328.335 21.6859C328.684 20.6827 329.168 19.8204 329.788 19.0989C330.418 18.3662 331.161 17.8026 332.017 17.4081C332.884 17.0135 333.836 16.8163 334.872 16.8163C335.908 16.8163 336.853 17.0135 337.709 17.4081C338.576 17.8026 339.319 18.3662 339.939 19.0989C340.569 19.8204 341.053 20.6827 341.391 21.6859C341.74 22.6779 341.915 23.7826 341.915 25C341.915 26.2174 341.74 27.3277 341.391 28.331C341.053 29.3229 340.569 30.1853 339.939 30.918C339.319 31.6394 338.576 32.1974 337.709 32.5919ZM272.608 38.9326V11.0336H282.911C284.713 11.0336 286.329 11.3492 287.759 11.9804C289.2 12.6117 290.343 13.5642 291.187 14.838C292.032 16.1118 292.454 17.7181 292.454 19.6569C292.454 21.5845 292.032 23.219 291.187 24.5604C290.343 25.8905 289.2 26.905 287.759 27.6039C286.329 28.2915 284.713 28.6353 282.911 28.6353H279.111V38.9326H272.608ZM279.111 23.4613H280.817C281.616 23.4613 282.382 23.3542 283.114 23.1401C283.846 22.9259 284.442 22.5595 284.904 22.041C285.366 21.5225 285.597 20.7954 285.597 19.8598C285.597 18.9129 285.366 18.1802 284.904 17.6617C284.442 17.1319 283.846 16.7599 283.114 16.5457C282.382 16.3316 281.616 16.2245 280.817 16.2245H279.111V23.4613ZM296.822 38.9326V11.0336H307.124C309.05 11.0336 310.728 11.3774 312.158 12.065C313.588 12.7413 314.697 13.722 315.485 15.0071C316.273 16.2921 316.667 17.8477 316.667 19.6738C316.667 21.0378 316.436 22.2777 315.975 23.3937C315.524 24.4984 314.871 25.4509 314.015 26.2512C313.16 27.0403 312.118 27.649 310.891 28.0773L319.944 38.9326H311.685L303.949 28.872H303.324V38.9326H296.822ZM303.324 23.4613H305.03C306.066 23.4613 306.939 23.3261 307.648 23.0555C308.357 22.7737 308.892 22.3623 309.253 21.8212C309.624 21.2801 309.81 20.6263 309.81 19.8598C309.81 18.6762 309.399 17.7744 308.577 17.1545C307.755 16.5345 306.573 16.2245 305.03 16.2245H303.324V23.4613Z" fill="#58B74A"/>
</svg>
